<mxfile host="65bd71144e">
    <diagram id="cV66_hRD1Sf9CVegrjcT" name="Page-1">
        <mxGraphModel dx="722" dy="608" grid="1" gridSize="10" guides="1" tooltips="1" connect="1" arrows="1" fold="1" page="1" pageScale="1" pageWidth="850" pageHeight="1100" math="0" shadow="0">
            <root>
                <mxCell id="0"/>
                <mxCell id="1" parent="0"/>
                <mxCell id="8" value="" style="rounded=0;whiteSpace=wrap;html=1;strokeColor=none;fillColor=#d5e8d4;" parent="1" vertex="1">
                    <mxGeometry x="30" y="20" width="400" height="170" as="geometry"/>
                </mxCell>
                <mxCell id="12" value="" style="rounded=0;whiteSpace=wrap;html=1;strokeColor=none;fillColor=#f8cecc;" parent="1" vertex="1">
                    <mxGeometry x="30" y="190" width="400" height="250" as="geometry"/>
                </mxCell>
                <mxCell id="7" value="&lt;font style=&quot;font-size: 14px;&quot;&gt;Low Level&lt;/font&gt;" style="text;html=1;strokeColor=none;fillColor=none;align=center;verticalAlign=middle;whiteSpace=wrap;rounded=0;" parent="1" vertex="1">
                    <mxGeometry x="190" y="410" width="80" height="30" as="geometry"/>
                </mxCell>
                <mxCell id="17" value="OS" style="rounded=0;whiteSpace=wrap;html=1;" vertex="1" parent="1">
                    <mxGeometry x="40" y="340" width="380" height="60" as="geometry"/>
                </mxCell>
                <mxCell id="5" value=".NET Framework / .NET Core / .NET" style="rounded=0;whiteSpace=wrap;html=1;" parent="1" vertex="1">
                    <mxGeometry x="40" y="270" width="380" height="60" as="geometry"/>
                </mxCell>
                <mxCell id="18" value="ASP .NET" style="rounded=0;whiteSpace=wrap;html=1;" vertex="1" parent="1">
                    <mxGeometry x="40" y="200" width="380" height="60" as="geometry"/>
                </mxCell>
                <mxCell id="6" value="&lt;font style=&quot;font-size: 14px;&quot;&gt;High Level&lt;/font&gt;" style="text;html=1;strokeColor=none;fillColor=none;align=center;verticalAlign=middle;whiteSpace=wrap;rounded=0;" parent="1" vertex="1">
                    <mxGeometry x="190" y="20" width="80" height="30" as="geometry"/>
                </mxCell>
                <mxCell id="30" value="" style="group" vertex="1" connectable="0" parent="1">
                    <mxGeometry x="40" y="130" width="380" height="60" as="geometry"/>
                </mxCell>
                <mxCell id="21" value="Sitecore" style="rounded=0;whiteSpace=wrap;html=1;movable=1;resizable=1;rotatable=1;deletable=1;editable=1;connectable=1;" vertex="1" parent="30">
                    <mxGeometry width="87.5" height="60" as="geometry"/>
                </mxCell>
                <mxCell id="22" value="Web Form" style="rounded=0;whiteSpace=wrap;html=1;movable=1;resizable=1;rotatable=1;deletable=1;editable=1;connectable=1;" vertex="1" parent="30">
                    <mxGeometry x="97.5" width="87.5" height="60" as="geometry"/>
                </mxCell>
                <mxCell id="23" value="MVC" style="rounded=0;whiteSpace=wrap;html=1;movable=1;resizable=1;rotatable=1;deletable=1;editable=1;connectable=1;" vertex="1" parent="30">
                    <mxGeometry x="292.5" width="87.5" height="60" as="geometry"/>
                </mxCell>
                <mxCell id="24" value="Web API" style="rounded=0;whiteSpace=wrap;html=1;movable=1;resizable=1;rotatable=1;deletable=1;editable=1;connectable=1;" vertex="1" parent="30">
                    <mxGeometry x="195" width="87.5" height="60" as="geometry"/>
                </mxCell>
                <mxCell id="31" value="" style="group" vertex="1" connectable="0" parent="1">
                    <mxGeometry x="40" y="60" width="380" height="60" as="geometry"/>
                </mxCell>
                <mxCell id="25" value="Public&lt;br&gt;Website" style="rounded=0;whiteSpace=wrap;html=1;movable=1;resizable=1;rotatable=1;deletable=1;editable=1;connectable=1;" vertex="1" parent="31">
                    <mxGeometry width="87.5" height="60" as="geometry"/>
                </mxCell>
                <mxCell id="26" value="Admin&lt;br&gt;Site" style="rounded=0;whiteSpace=wrap;html=1;movable=1;resizable=1;rotatable=1;deletable=1;editable=1;connectable=1;" vertex="1" parent="31">
                    <mxGeometry x="97.5" width="87.5" height="60" as="geometry"/>
                </mxCell>
                <mxCell id="27" value="Batch Job&lt;br&gt;Interface" style="rounded=0;whiteSpace=wrap;html=1;movable=1;resizable=1;rotatable=1;deletable=1;editable=1;connectable=1;" vertex="1" parent="31">
                    <mxGeometry x="292.5" width="87.5" height="60" as="geometry"/>
                </mxCell>
                <mxCell id="28" value="Reporting&lt;br&gt;API" style="rounded=0;whiteSpace=wrap;html=1;movable=1;resizable=1;rotatable=1;deletable=1;editable=1;connectable=1;" vertex="1" parent="31">
                    <mxGeometry x="195" width="87.5" height="60" as="geometry"/>
                </mxCell>
            </root>
        </mxGraphModel>
    </diagram>
</mxfile>